#!OML:ASF E:\motion texture\Top Level 1\Subject 1\Session 1\male.ASF
:FULLY-SPECIFIED
:DEGREES
149
root 27.1711 17.7241 3.89984 276.682 -88.1132 -270.958
lowerback 25.3483 22.7867 9.92203
upperback 11.4395 39.5258 11.2401
thorax -173.889 116.32 -0.107969
lowerneck 23.4987 24.3312 12.4427
upperneck -25.6946 75.5784 -28.9558
head 275.526 102.733 134.603
rclavicle 6.04305e-014 -1.55052e-014
rhumerus 64.1454 3.69152 110.138
rradius 74.9922
rwrist -61.3465
rhand -12.9767 -71.6034
rfingers 7.12502
rthumb 13.1156 101.171
lclavicle 6.04305e-014 -1.55052e-014
lhumerus 103.812 2.35443 -100.765
lradius 101.708
lwrist 56.0529
lhand -8.04885 55.7595
lfingers 7.12502
lthumb 17.8618 84.9593
rfemur -34.0506 -5.40229 17.0104
rtibia 51.3291
rfoot -1.38209 -11.609
rtoes 8.71459
lfemur -7.83158 -4.32826 -25.6304
ltibia 16.4417
lfoot -12.1111 1.43196
ltoes 5.2251
150
root 27.0507 17.7177 3.88309 290.097 -87.9794 -284.345
lowerback 25.3887 22.6323 9.86004
upperback 11.4773 39.4653 11.2361
thorax -173.872 116.576 -0.10866
lowerneck 23.6223 24.3995 12.396
upperneck -26.2565 75.6628 -29.5281
head 273.372 102.664 132.662
rclavicle 1.75726e-013 -3.65764e-014
rhumerus 64.4524 3.69193 110.174
rradius 74.8742
rwrist -61.6506
rhand -13.0131 -71.6785
rfingers 7.12502
rthumb 13.0806 101.248
lclavicle 1.75726e-013 -3.65764e-014
lhumerus 103.027 2.16197 -100.77
lradius 102.551
lwrist 56.178
lhand -8.36839 56.0544
lfingers 7.12502
lthumb 17.5543 85.2819
rfemur -34.4273 -5.73164 16.999
rtibia 49.7879
rfoot -1.41592 -11.8453
rtoes 8.77068
lfemur -7.32996 -4.32159 -25.6643
ltibia 16.2745
lfoot -12.3946 1.1677
ltoes 4.90502
151
root 26.9301 17.7105 3.86549 301.504 -87.7543 -295.718
lowerback 25.4328 22.4783 9.83093
upperback 11.5079 39.3968 11.2388
thorax -173.867 116.818 -0.123649
lowerneck 23.7513 24.481 12.3505
upperneck -26.8774 75.7646 -30.1615
head 271.404 102.629 130.918
rclavicle 1.66979e-014 3.18055e-015
rhumerus 64.8145 3.65778 110.225
rradius 74.8295
rwrist -61.9474
rhand -13.0733 -71.7854
rfingers 7.12502
rthumb 13.0226 101.359
lclavicle 1.66979e-014 3.18055e-015
lhumerus 102.211 1.97261 -100.775
lradius 103.37
lwrist 56.2808
lhand -8.69131 56.3558
lfingers 7.12502
lthumb 17.2436 85.6108
rfemur -34.7677 -6.05165 16.9873
rtibia 48.2163
rfoot -1.38266 -12.037
rtoes 8.85564
lfemur -6.84462 -4.31672 -25.681
ltibia 16.127
lfoot -12.679 0.907442
ltoes 4.56834
152
root 26.8093 17.7026 3.8471 310.682 -87.4607 -304.856
lowerback 25.4733 22.325 9.81186
upperback 11.533 39.3222 11.2408
thorax -173.868 117.06 -0.143784
lowerneck 23.8812 24.5658 12.3052
upperneck -27.5185 75.8665 -30.8157
head 269.468 102.612 129.209
rclavicle 1.86858e-014 1.70955e-014
rhumerus 65.2268 3.59554 110.278
rradius 74.8623
rwrist -62.2473
rhand -13.1593 -71.9174
rfingers 7.12502
rthumb 12.9396 101.496
lclavicle 1.86858e-014 1.70955e-014
lhumerus 101.36 1.78839 -100.8
lradius 104.161
lwrist 56.3601
lhand -9.01803 56.6644
lfingers 7.12502
lthumb 16.9291 85.9466
rfemur -35.0734 -6.358 16.9743
rtibia 46.6301
rfoot -1.29426 -12.1903
rtoes 8.97625
lfemur -6.3769 -4.31474 -25.6813
ltibia 16.0015
lfoot -12.9637 0.65323
ltoes 4.2134
153
root 26.6882 17.6941 3.82791 317.883 -87.1235 -312.013
lowerback 25.512 22.1739 9.80439
upperback 11.5537 39.2436 11.2436
thorax -173.874 117.3 -0.169551
lowerneck 24.0118 24.6538 12.2604
upperneck -28.1801 75.9684 -31.491
head 267.58 102.612 127.552
rclavicle -1.92821e-014 -7.27552e-014
rhumerus 65.6903 3.50513 110.332
rradius 74.9747
rwrist -62.5397
rhand -13.2549 -72.0726
rfingers 7.12502
rthumb 12.8474 101.657
lclavicle -1.92821e-014 -7.27552e-014
lhumerus 100.475 1.61096 -100.844
lradius 104.921
lwrist 56.419
lhand -9.34717 56.9822
lfingers 7.12502
lthumb 16.6122 86.2912
rfemur -35.3459 -6.64502 16.9622
rtibia 45.0456
rfoot -1.16506 -12.3138
rtoes 9.10724
lfemur -5.92624 -4.31417 -25.6635
ltibia 15.8992
lfoot -13.2483 0.408387
ltoes 3.83704
154
root 26.5667 17.685 3.80796 323.546 -86.7571 -317.63
lowerback 25.5474 22.0249 9.80401
upperback 11.5703 39.1614 11.2458
thorax -173.884 117.537 -0.198543
lowerneck 24.1416 24.7428 12.216
upperneck -28.8515 76.0669 -32.1763
head 265.723 102.627 125.928
rclavicle -9.14409e-015 -2.34566e-014
rhumerus 66.204 3.38783 110.385
rradius 75.1688
rwrist -62.8242
rhand -13.3573 -72.239
rfingers 7.12502
rthumb 12.7488 101.83
lclavicle -9.14409e-015 -2.34566e-014
lhumerus 99.5592 1.44004 -100.909
lradius 105.647
lwrist 56.4557
lhand -9.68342 57.3055
lfingers 7.12502
lthumb 16.2885 86.6414
rfemur -35.5842 -6.91064 16.9476
rtibia 43.4735
rfoot -1.00376 -12.4126
rtoes 9.24244
lfemur -5.49259 -4.31753 -25.6302
ltibia 15.8232
lfoot -13.533 0.173988
ltoes 3.44669
155
root 26.4447 17.6755 3.78725 328.064 -86.3749 -322.098
lowerback 25.5768 21.8796 9.81181
upperback 11.5807 39.0738 11.2461
thorax -173.899 117.773 -0.231608
lowerneck 24.2688 24.8326 12.1716
upperneck -29.526 76.1621 -32.8645
head 263.921 102.655 124.356
rclavicle -6.83819e-014 -4.09496e-014
rhumerus 66.7651 3.24443 110.439
rradius 75.4468
rwrist -63.0974
rhand -13.4639 -72.4138
rfingers 7.12502
rthumb 12.646 102.011
lclavicle -6.83819e-014 -4.09496e-014
lhumerus 98.611 1.27562 -100.993
lradius 106.336
lwrist 56.4687
lhand -10.0213 57.6359
lfingers 7.12502
lthumb 15.9632 86.9982
rfemur -35.7902 -7.14894 16.9314
rtibia 41.9237
rfoot -0.81195 -12.4983
rtoes 9.38573
lfemur -5.07679 -4.32521 -25.5798
ltibia 15.7752
lfoot -13.816 -0.0486365
ltoes 3.02955
156
root 26.3221 17.6657 3.76583 331.736 -85.9865 -325.718
lowerback 25.6047 21.7381 9.82956
upperback 11.5875 38.9841 11.2476
thorax -173.92 118.008 -0.269484
lowerneck 24.3949 24.9238 12.1269
upperneck -30.2148 76.2565 -33.567
head 262.185 102.696 122.85
rclavicle 1.35174e-014 5.80451e-014
rhumerus 67.3756 3.07156 110.491
rradius 75.8094
rwrist -63.3569
rhand -13.5731 -72.5758
rfingers 7.12502
rthumb 12.5407 102.179
lclavicle 1.35174e-014 5.80451e-014
lhumerus 97.6385 1.11602 -101.098
lradius 106.985
lwrist 56.458
lhand -10.3809 57.9654
lfingers 7.12502
lthumb 15.6168 87.355
rfemur -35.9642 -7.35733 16.9143
rtibia 40.4058
rfoot -0.589631 -12.5788
rtoes 9.54709
lfemur -4.67913 -4.33875 -25.5119
ltibia 15.7579
lfoot -14.0959 -0.257047
ltoes 2.58293
157
root 26.1988 17.6557 3.74377 334.778 -85.5999 -328.706
lowerback 25.6294 21.6018 9.85661
upperback 11.5898 38.8919 11.2491
thorax -173.944 118.24 -0.311797
lowerneck 24.5182 25.0146 12.0817
upperneck -30.9083 76.3484 -34.2738
head 260.513 102.746 121.406
rclavicle -6.30147e-014 1.66979e-014
rhumerus 68.0336 2.87125 110.54
rradius 76.2567
rwrist -63.5998
rhand -13.6779 -72.7228
rfingers 7.12502
rthumb 12.4397 102.333
lclavicle -6.30147e-014 1.66979e-014
lhumerus 96.6417 0.962687 -101.222
lradius 107.591
lwrist 56.4226
lhand -10.7425 58.2944
lfingers 7.12502
lthumb 15.2685 87.7109
rfemur -36.1089 -7.53395 16.8979
rtibia 38.9319
rfoot -0.338959 -12.6562
rtoes 9.74368
lfemur -4.30034 -4.35906 -25.4263
ltibia 15.7731
lfoot -14.3711 -0.449128
ltoes 2.10541
158
root 26.0748 17.6457 3.72113 337.349 -85.2208 -331.224
lowerback 25.6486 21.4718 9.89259
upperback 11.5863 38.7964 11.2497
thorax -173.975 118.469 -0.358376
lowerneck 24.637 25.1045 12.0363
upperneck -31.5976 76.437 -34.9755
head 258.92 102.805 120.035
rclavicle -1.70955e-013 -7.95139e-015
rhumerus 68.7351 2.64625 110.585
rradius 76.791
rwrist -63.8245
rhand -13.7731 -72.8687
rfingers 7.12502
rthumb 12.3479 102.484
lclavicle -1.70955e-013 -7.95139e-015
lhumerus 95.619 0.816892 -101.366
lradius 108.15
lwrist 56.3659
lhand -11.1058 58.6287
lfingers 7.12502
lthumb 14.9186 88.0715
rfemur -36.2257 -7.67715 16.8838
rtibia 37.5138
rfoot -0.0663786 -12.7328
rtoes 9.98441
lfemur -3.93999 -4.38625 -25.3226
ltibia 15.8225
lfoot -14.6392 -0.623256
ltoes 1.58969
159
root 25.9499 17.6357 3.69794 339.556 -84.8547 -333.376
lowerback 25.6623 21.3493 9.93626
upperback 11.5775 38.6983 11.2493
thorax -174.01 118.699 -0.409071
lowerneck 24.7506 25.1928 11.9893
upperneck -32.283 76.5239 -35.6721
head 257.406 102.869 118.734
rclavicle -3.02153e-014 -4.37326e-015
rhumerus 69.4787 2.39573 110.621
rradius 77.4113
rwrist -64.0281
rhand -13.8626 -73.0006
rfingers 7.12502
rthumb 12.2616 102.621
lclavicle -3.02153e-014 -4.37326e-015
lhumerus 94.5727 0.675828 -101.528
lradius 108.66
lwrist 56.2871
lhand -11.4641 58.9754
lfingers 7.12502
lthumb 14.5734 88.4435
rfemur -36.3163 -7.78476 16.8729
rtibia 36.1612
rfoot 0.218326 -12.8106
rtoes 10.2718
lfemur -3.59805 -4.42003 -25.2016
ltibia 15.9082
lfoot -14.8991 -0.778515
ltoes 1.03776
160
root 25.8239 17.6258 3.67425 341.482 -84.5055 -335.249
lowerback 25.6733 21.2346 9.98859
upperback 11.5648 38.6003 11.2496
thorax -174.05 118.925 -0.463644
lowerneck 24.8591 25.2789 11.9423
upperneck -32.9586 76.6072 -36.3579
head 255.979 102.937 117.513
rclavicle 5.76476e-014 -9.14409e-015
rhumerus 70.2657 2.12038 110.651
rradius 78.1192
rwrist -64.207
rhand -13.9531 -73.1209
rfingers 7.12502
rthumb 12.1743 102.747
lclavicle 5.76476e-014 -9.14409e-015
lhumerus 93.5065 0.540743 -101.71
lradius 109.119
lwrist 56.1903
lhand -11.8191 59.3291
lfingers 7.12502
lthumb 14.2313 88.8215
rfemur -36.3818 -7.85529 16.8664
rtibia 34.8819
rfoot 0.506882 -12.8916
rtoes 10.6026
lfemur -3.27493 -4.46047 -25.0636
ltibia 16.0322
lfoot -15.1479 -0.914279
ltoes 0.444508
161
root 25.6969 17.6164 3.65011 343.188 -84.1764 -336.903
lowerback 25.6771 21.1291 10.0468
upperback 11.5462 38.4999 11.2477
thorax -174.095 119.151 -0.52164
lowerneck 24.9599 25.3615 11.8938
upperneck -33.6129 76.6869 -37.0204
head 254.628 103.006 116.354
rclavicle -7.95139e-015 2.98177e-014
rhumerus 71.0901 1.82147 110.671
rradius 78.9128
rwrist -64.3541
rhand -14.0365 -73.2171
rfingers 7.12502
rthumb 12.0939 102.848
lclavicle -7.95139e-015 2.98177e-014
lhumerus 92.4188 0.408617 -101.911
lradius 109.523
lwrist 56.076
lhand -12.1648 59.6999
lfingers 7.12502
lthumb 13.8982 89.2155
rfemur -36.4236 -7.88826 16.8657
rtibia 33.6816
rfoot 0.791381 -12.9765
rtoes 10.9691
lfemur -2.97188 -4.50739 -24.9095
ltibia 16.1973
lfoot -15.3832 -1.03031
ltoes -0.191776
162
root 25.5687 17.6073 3.62555 344.714 -83.8694 -338.379
lowerback 25.6735 21.0334 10.1118
upperback 11.5215 38.3973 11.244
thorax -174.145 119.376 -0.583013
lowerneck 25.0522 25.4404 11.8434
upperneck -34.2461 76.7651 -37.6594
head 253.376 103.073 115.278
rclavicle -4.45278e-014 5.96354e-015
rhumerus 71.9498 1.50016 110.682
rradius 79.7904
rwrist -64.4629
rhand -14.1165 -73.2773
rfingers 7.12502
rthumb 12.0167 102.912
lclavicle -4.45278e-014 5.96354e-015
lhumerus 91.3114 0.278052 -102.129
lradius 109.869
lwrist 55.9488
lhand -12.5054 60.0654
lfingers 7.12502
lthumb 13.5699 89.6032
rfemur -36.4418 -7.88529 16.8712
rtibia 32.5641
rfoot 1.06608 -13.0638
rtoes 11.3761
lfemur -2.68947 -4.55991 -24.7409
ltibia 16.4058
lfoot -15.6025 -1.12747
ltoes -0.872901
